<svg xmlns="http://www.w3.org/2000/svg" width="624.031" height="158.652" viewBox="0 0 624.031 158.652">
  <g id="Diagrama" transform="translate(-387.5 -2176.348)">
    <path id="Caminho_1" data-name="Caminho 1" d="M810,2235h210v80" transform="translate(-10.969 20)" fill="none" stroke="#000" stroke-linejoin="bevel" stroke-width="5"/>
    <path id="Caminho_2" data-name="Caminho 2" d="M1020,2235H810v80" transform="translate(-420 20)" fill="none" stroke="#000" stroke-linejoin="bevel" stroke-width="5"/>
    <path id="Caminho_3" data-name="Caminho 3" d="M700,2275v30h0" transform="translate(0 26)" fill="none" stroke="#000" stroke-width="5"/>
    <g id="bikcraft" transform="translate(599.474 2176.348)">
      <path id="Caminho_11" data-name="Caminho 11" d="M9.251,10.194c3.142-.125,10.807-.376,14.7-1.257-.127,1.635-.378,6.661-.378,16.211V29.42c3.518-2.891,6.41-4.4,9.928-4.4a10.349,10.349,0,0,1,9.047,4.65,19.716,19.716,0,0,1,2.513,10.179c0,11.685-5.529,18.346-16.713,18.346a21.08,21.08,0,0,1-8.8-2.137c-1.508.5-3.518,1.508-5.529,2.137l-.629-.378c.127-3.394.127-9.8.127-18.473V23.262c0-4.021-.127-6.786-.251-9.172C13.146,12.455,12.77,12.2,9,12.2Zm19.1,45.615c4.272,0,6.283-5.153,6.283-14.7a20.754,20.754,0,0,0-1.759-9.3,4.531,4.531,0,0,0-4.021-2.513,5.787,5.787,0,0,0-4.65,2.764c-.627.881-.879,1.635-.879,11.561,0,8.169.378,8.42.881,9.425A4.523,4.523,0,0,0,28.351,55.808Zm38.7,1.635c-2.64,0-5.278-.253-9.425-.253-4.4,0-6.534.253-8.669.253V55.306c3.518-.127,4.021-.754,4.148-2.137.125-1.508.251-3.894.251-7.791V37.336c0-3.267,0-5.9-.127-7.037s-.629-1.508-3.9-1.381V26.78c4.4-.376,9.677-.5,13.949-1.381-.127,1.635-.251,4.65-.251,11.561v8.671c0,4.021.127,5.78.251,7.539s.629,2.011,3.77,2.386Zm-9.425-46.62c3.269,0,5.153,1.886,5.153,5.278,0,2.891-2.137,4.9-5.4,4.9a4.684,4.684,0,0,1-4.9-4.9,4.981,4.981,0,0,1,5.153-5.278Zm12.692-.629a92.658,92.658,0,0,0,13.7-1.257q-.255,7.788-.253,15.582V40.227c2.389-.629,7.539-6.912,9.55-10.555.378-.754.378-1.132-.627-1.132l-2.764-.251V26.153c4.65.127,9.425-.127,14.2-.378v2.137c-3.518.378-4.9.629-6.285,1.759a58.8,58.8,0,0,0-6.032,6.283C93.315,39.1,99.6,50.657,101.987,53.8a3.5,3.5,0,0,0,3.142,1.508l1.757.127-.125,2.135a93.151,93.151,0,0,0-13.949.754C91.3,54.8,86.781,46.258,85.4,43.618c-.754-1.381-1.132-1.884-1.635-1.759,0,5.153-.125,7.666.127,11.309.127,1.635.5,2.137,3.9,2.262v2.137c-2.389,0-4.9-.251-9.047-.251-4.9,0-7.037.251-8.923.251V55.43c3.267-.125,3.77-.752,3.9-2.011.125-1.508.249-4.775.249-11.309V25.9c0-5.153,0-9.047-.125-12.314q0-1.131-1.508-1.132H70.194ZM40.038,88.479c-2.137,6.786-6.283,10.053-13.2,10.053-5.907,0-9.677-1.635-12.314-5.153-2.011-2.638-3.016-6.534-3.016-10.931,0-9.677,5.907-17.089,16.713-17.089,6.534,0,11.309,3.016,11.309,7.917,0,3.392-2.764,4.773-5.026,4.773A5.7,5.7,0,0,1,32,77.421a1.963,1.963,0,0,1-.881-2.262,18.93,18.93,0,0,0,.378-2.64c0-3.14-1.132-4.648-3.518-4.648-3.9,0-5.907,5.656-5.907,13.446,0,3.14.378,6.659,1.508,8.794,1.257,2.891,3.267,4.524,6.283,4.524,3.77,0,6.158-2.135,7.917-7.037ZM47.2,79.307a70.2,70.2,0,0,0-.378-8.8,1.324,1.324,0,0,0-1.508-1.255H43.052V67.117c3.77-.127,8.923-.378,12.566-1.508l.378.251c.251,1.508.5,5.153.629,7.415h.249c1.637-4.4,3.9-7.917,8.547-7.917a4.736,4.736,0,0,1,4.65,5.026c0,4.148-3.142,5.4-4.4,5.4a2.433,2.433,0,0,1-2.513-1.259c-.627-1.381-1.005-2.135-2.26-2.135-1.383,0-2.137,1.257-3.016,3.267a13.341,13.341,0,0,0-.629,4.524c0,7.163,0,11.185.127,12.944s.752,2.26,5.778,2.386l-.125,2.137c-3.518-.127-6.661-.253-10.3-.253-3.77,0-6.534.127-9.677.253l.376-2.137c3.016-.127,3.77-.5,3.77-1.759.127-1.759.251-5.153.251-9.047v-5.4H47.2Zm42.6-5.78c0-3.772-1.259-5.782-3.772-5.782-2.889,0-4.27,1.635-4.27,4.65a14.027,14.027,0,0,0,.249,2.388,1.79,1.79,0,0,1-.752,1.884A6.868,6.868,0,0,1,77.736,77.8c-2.388,0-4.4-1.134-4.4-3.9,0-4.021,5.907-8.545,14.2-8.545,6.783,0,9.8,2.764,10.931,4.524a6.315,6.315,0,0,1,1.005,3.394V91.746c0,2.137.629,2.64,1.383,2.64,1.005,0,2.135-1.635,2.638-4.4l2.137,1.005c-1.132,5.4-4.4,7.666-8.923,7.666-3.9,0-6.032-1.635-6.661-4.9-3.016,3.016-6.156,4.9-9.423,4.9-5.278,0-8.8-3.518-8.8-9.3,0-3.518,1.508-5.529,4.148-6.659,4.27-1.886,10.68-3.77,13.82-6.032V73.525ZM81.881,87.474c0,2.764,1.132,5.78,3.9,5.78,2.011,0,2.889-1.257,3.518-2.513a9.335,9.335,0,0,0,.376-3.016V79.181c-1.383.881-3.518,1.886-5.153,2.891C83.011,83.077,81.881,84.332,81.881,87.474Zm24.88-20.984,4.021.125V64.6c.127-5.278,1.383-9.174,4.148-11.938A12.418,12.418,0,0,1,124.1,48.9c5.153,0,7.917,2.513,7.917,5.78,0,2.388-2.011,4.021-4.777,4.021a2.374,2.374,0,0,1-2.513-2.513c0-2.638-.376-4.773-2.26-4.773-1.259,0-2.011,1.13-2.264,3.267-.249,2.011.127,5.78.378,11.685h6.158l-.378,2.513-5.78.378c-.127,2.386-.127,6.534-.127,11.434,0,4.65,0,8.8.127,12.063.127,1.635.378,2.262,1.759,2.389a33.5,33.5,0,0,0,3.394.249l-.255,2.137c-2.386,0-6.156-.251-9.423-.251-3.394,0-7.415.251-9.677.251l.127-2.137c3.267-.125,3.77-.5,3.9-1.884.249-2.137.249-5.4.249-9.8V69.128l-4.27-.251.376-2.388Z" transform="translate(9.095 9.031)" fill="#fec63e"/>
      <path id="Caminho_12" data-name="Caminho 12" d="M89.99,43.185l-.253,2.386-7.664.5c0,2.64-.127,6.534-.127,11.812,0,5.529,0,9.3.253,11.56.125,1.635.752,2.389,2.011,2.389,2.638,0,4.27-2.891,4.9-5.529h1.005L91,69.195c-1.508,3.645-5.28,6.158-10.809,6.158-3.016,0-5.654-1.005-6.91-2.513a6.923,6.923,0,0,1-1.257-4.524c0-5.153.251-16.713.251-22.242L68.25,45.7l.251-2.386h3.77c.127-2.389.127-5.153.127-7.666A34.728,34.728,0,0,0,81.821,32l.754.127q-.329,5.586-.378,11.183H89.99v-.127Z" transform="translate(68.968 32.337)" fill="#fec63e"/>
      <path id="Caminho_13" data-name="Caminho 13" d="M191,10.053V114.6H10.053V10.053ZM201.052,0H0V124.652H201.052Z" fill="#fec63e"/>
    </g>
  </g>
</svg>
